# Blender v2.93.5 OBJ File: ''
# www.blender.org
mtllib Platform2.mtl
o Cube
v 1.049033 -1.000000 -2.482074
v 2.482074 -1.000000 -1.049033
v 2.482074 -1.000000 1.049033
v 1.049033 -1.000000 2.482074
v -2.482074 -1.000000 -1.049033
v -1.049033 -1.000000 -2.482074
v -1.049033 -1.000000 2.482074
v -2.482074 -1.000000 1.049033
v 3.593301 1.000000 -0.638713
v 2.976361 1.000000 -2.128139
v 2.128139 1.000000 -2.976361
v 0.638713 1.000000 -3.593301
v 0.638713 1.000000 3.593301
v 2.128139 1.000000 2.976361
v 2.976361 1.000000 2.128139
v 3.593301 1.000000 0.638713
v -0.638713 1.000000 -3.593301
v -2.128139 1.000000 -2.976361
v -2.976361 1.000000 -2.128139
v -3.593301 1.000000 -0.638713
v -3.593301 1.000000 0.638713
v -2.976361 1.000000 2.128139
v -2.128139 1.000000 2.976361
v -0.638713 1.000000 3.593301
v 0.638713 -0.111850 -3.593301
v 2.128139 -0.111850 -2.976361
v 1.265956 -0.703917 -3.001234
v 2.976361 -0.111850 -2.128139
v 3.593301 -0.111850 -0.638713
v 3.001234 -0.703917 -1.265956
v 3.593301 -0.111850 0.638713
v 2.976361 -0.111850 2.128139
v 3.001234 -0.703917 1.265956
v 2.128139 -0.111850 2.976361
v 0.638713 -0.111850 3.593301
v 1.265956 -0.703917 3.001234
v -3.593301 -0.111850 -0.638713
v -2.976361 -0.111850 -2.128139
v -3.001234 -0.703917 -1.265956
v -2.128139 -0.111850 -2.976361
v -0.638713 -0.111850 -3.593301
v -1.265956 -0.703917 -3.001234
v -0.638713 -0.111850 3.593301
v -2.128139 -0.111850 2.976361
v -1.265956 -0.703917 3.001234
v -2.976361 -0.111850 2.128139
v -3.593301 -0.111850 0.638713
v -3.001234 -0.703917 1.265956
vt 0.486019 0.352781
vt 0.625000 0.352781
vt 0.625000 0.397219
vt 0.486019 0.397219
vt 0.289772 0.530896
vt 0.210228 0.530896
vt 0.205961 0.520596
vt 0.227781 0.500000
vt 0.272219 0.500000
vt 0.294039 0.520596
vt 0.486019 0.102781
vt 0.625000 0.102781
vt 0.625000 0.147219
vt 0.486019 0.147219
vt 0.486019 0.602781
vt 0.625000 0.602781
vt 0.625000 0.647219
vt 0.486019 0.647219
vt 0.486019 0.852781
vt 0.625000 0.852781
vt 0.625000 0.897219
vt 0.486019 0.897219
vt 0.625000 0.779507
vt 0.486019 0.779507
vt 0.486019 0.720493
vt 0.625000 0.720493
vt 0.625000 0.279507
vt 0.486019 0.279507
vt 0.486019 0.220493
vt 0.625000 0.220493
vt 0.486019 0.021461
vt 0.625000 0.021461
vt 0.625000 0.050969
vt 0.486019 0.050969
vt 0.155896 0.585228
vt 0.344104 0.585228
vt 0.344104 0.664772
vt 0.289772 0.719104
vt 0.210228 0.719104
vt 0.155896 0.664772
vt 0.391414 0.580961
vt 0.391414 0.669039
vt 0.294039 0.729404
vt 0.272219 0.750000
vt 0.227781 0.750000
vt 0.205961 0.729404
vt 0.175969 0.728539
vt 0.146461 0.699031
vt 0.145596 0.669039
vt 0.324031 0.521461
vt 0.353539 0.550969
vt 0.354404 0.580961
vt 0.354404 0.669039
vt 0.353539 0.699031
vt 0.324031 0.728539
vt 0.145596 0.580961
vt 0.146461 0.550969
vt 0.175969 0.521461
vt 0.125000 0.647219
vt 0.125000 0.602781
vt 0.646461 0.550969
vt 0.675969 0.521461
vt 0.727781 0.500000
vt 0.772219 0.500000
vt 0.824031 0.521461
vt 0.853539 0.550969
vt 0.875000 0.602781
vt 0.875000 0.647219
vt 0.853539 0.699031
vt 0.824031 0.728539
vt 0.772219 0.750000
vt 0.727781 0.750000
vt 0.675969 0.728539
vt 0.646461 0.699031
vt 0.300172 0.505789
vt 0.369211 0.574828
vt 0.382588 0.654807
vt 0.324031 0.739269
vt 0.130789 0.574828
vt 0.199828 0.505789
vt 0.220193 0.757588
vt 0.135731 0.699031
vt 0.486019 0.529507
vt 0.625000 0.529507
vt 0.625000 0.470493
vt 0.486019 0.470493
vt 0.486019 0.000000
vt 0.625000 0.000000
vn 0.0000 0.0000 -1.0000
vn 0.0000 -0.7891 -0.6142
vn -1.0000 0.0000 0.0000
vn 1.0000 0.0000 0.0000
vn 0.0000 0.0000 1.0000
vn 0.7071 0.0000 0.7071
vn -0.7071 0.0000 -0.7071
vn -0.7071 0.0000 0.7071
vn 0.0000 -1.0000 0.0000
vn 0.6142 -0.7891 0.0000
vn 0.0000 -0.7891 0.6142
vn -0.4336 -0.7899 0.4336
vn 0.4336 -0.7899 -0.4336
vn 0.4336 -0.7899 0.4336
vn -0.4336 -0.7899 -0.4336
vn -0.6142 -0.7891 0.0000
vn 0.0000 1.0000 0.0000
vn 0.3397 -0.4603 -0.8202
vn 0.8202 -0.4603 -0.3397
vn 0.8202 -0.4603 0.3397
vn 0.3397 -0.4603 0.8202
vn -0.8202 -0.4603 -0.3397
vn -0.3397 -0.4603 -0.8202
vn -0.3397 -0.4603 0.8202
vn -0.8202 -0.4603 0.3397
vn 0.9239 0.0000 -0.3827
vn 0.3827 -0.0000 -0.9239
vn -0.3827 0.0000 -0.9239
vn 0.9239 -0.0000 0.3827
vn 0.3827 0.0000 0.9239
vn -0.3827 -0.0000 0.9239
vn -0.9239 -0.0000 -0.3827
vn -0.9239 0.0000 0.3827
vn 0.7071 0.0000 -0.7071
g Cube_Cube_Material
usemtl Material
s off
f 41/1/1 17/2/1 12/3/1 25/4/1
f 1/5/2 6/6/2 42/7/2 41/8/2 25/9/2 27/10/2
f 47/11/3 21/12/3 20/13/3 37/14/3
f 29/15/4 9/16/4 16/17/4 31/18/4
f 35/19/5 13/20/5 24/21/5 43/22/5
f 14/23/6 34/24/6 32/25/6 15/26/6
f 18/27/7 40/28/7 38/29/7 19/30/7
f 44/31/8 23/32/8 22/33/8 46/34/8
f 5/35/9 6/6/9 1/5/9 2/36/9 3/37/9 4/38/9 7/39/9 8/40/9
f 3/37/10 2/36/10 30/41/10 29/15/10 31/18/10 33/42/10
f 36/43/11 35/44/11 43/45/11 45/46/11 7/39/11 4/38/11
f 8/40/12 7/39/12 45/46/12 44/47/12 46/48/12 48/49/12
f 2/36/13 1/5/13 27/10/13 26/50/13 28/51/13 30/52/13
f 4/38/14 3/37/14 33/53/14 32/54/14 34/55/14 36/43/14
f 6/6/15 5/35/15 39/56/15 38/57/15 40/58/15 42/7/15
f 48/49/16 47/59/16 37/60/16 39/56/16 5/35/16 8/40/16
f 9/16/17 10/61/17 11/62/17 12/63/17 17/64/17 18/65/17 19/66/17 20/67/17 21/68/17 22/69/17 23/70/17 24/71/17 13/72/17 14/73/17 15/74/17 16/17/17
f 25/9/18 26/75/18 27/10/18
f 28/51/19 29/76/19 30/52/19
f 31/77/20 32/54/20 33/53/20
f 34/78/21 35/44/21 36/43/21
f 37/60/22 38/79/22 39/56/22
f 40/58/23 41/80/23 42/7/23
f 43/81/24 44/47/24 45/46/24
f 46/82/25 47/59/25 48/49/25
f 9/16/26 29/15/26 28/83/26 10/84/26
f 25/4/27 12/3/27 11/85/27 26/86/27
f 40/28/28 18/27/28 17/2/28 41/1/28
f 15/26/29 32/25/29 31/18/29 16/17/29
f 13/20/30 35/19/30 34/24/30 14/23/30
f 23/32/31 44/31/31 43/87/31 24/88/31
f 37/14/32 20/13/32 19/30/32 38/29/32
f 46/34/33 22/33/33 21/12/33 47/11/33
f 10/84/34 28/83/34 26/86/34 11/85/34
